# xmcd
#
# Track frame offsets: 
#        150
#        16461
#        40547
#        61106
#        81413
#        100955
#        119597
#        141594
#        159627
#        178545
#        197186
#        218324
#        234289
#        256215
#        270773
#        289879
#
# Disc length: 4080 seconds
#
# Revision: 0
# Processed by: cddbd v1.4PL0 Copyright (c) Steve Scherf et al.
# Submitted via: ExactAudioCopy v0.90b4
#
DISCID=db0fee10
DTITLE=Various Artist - Beautefull panpipe melodies cd 1
DYEAR=1998
DGENRE=Easy Listening
TTITLE0=Without you
TTITLE1=All woman
TTITLE2=Forever love
TTITLE3=Every thing l do, l do it for you
TTITLE4=Becaused you love me
TTITLE5=I will always love you
TTITLE6=Just the way you are
TTITLE7=Lady in red
TTITLE8=Hello
TTITLE9=Love will keep us alive
TTITLE10=The power of love
TTITLE11=Promise me
TTITLE12=Here we are
TTITLE13=Tonight l celebrate my love for you
TTITLE14=When l need you
TTITLE15=Wonderfull tonight
EXTD=
EXTT0=
EXTT1=
EXTT2=
EXTT3=
EXTT4=
EXTT5=
EXTT6=
EXTT7=
EXTT8=
EXTT9=
EXTT10=
EXTT11=
EXTT12=
EXTT13=
EXTT14=
EXTT15=
PLAYORDER=
